<?xml version="1.0" encoding="UTF-8"?>
<svg xmlns="http://www.w3.org/2000/svg" version="1.1" viewBox="0 0 400 400">
  <defs>
    <style>
      .cls-1 {
        stroke-width: 13px;
      }

      .cls-1, .cls-2 {
        fill: none;
      }

      .cls-1, .cls-2, .cls-3 {
        stroke: #414042;
        stroke-linecap: round;
        stroke-miterlimit: 10;
      }

      .cls-4 {
        fill: #fff;
      }

      .cls-2, .cls-3 {
        stroke-width: 8px;
      }

      .cls-3, .cls-5 {
        fill: #414042;
      }
    </style>
  </defs>
  <!-- Generator: Adobe Illustrator 28.7.7, SVG Export Plug-In . SVG Version: 1.2.0 Build 194)  -->
  <g>
    <g id="Layer_1">
      <circle class="cls-4" cx="200.37" cy="200.19" r="136.72"/>
      <g>
        <path class="cls-5" d="M194.71,132.21c9.27,3.09,19.51,5.01,28.85,8.41,25.91,8.7,45.1,26.08,46.78,54.76,3.54,48.44-45.6,83.39-90.54,65.4-11.33-4.48-21.4-12.15-28.85-21.93-9.39-13.35,9.09-27.47,19.5-14.94,24.09,35.16,77.61,20.59,82.51-21.32,3.64-36.17-25.82-47.41-55.21-56.18-2.46-.8-4.95-1.61-7.64-2.74-7.3-3.33-3.03-14.1,4.6-11.47h0Z"/>
        <path class="cls-5" d="M193.49,252.58c-1.63,13.6-12.05,25.76-25.37,28.42-2.95.6-5.95.77-8.93.51,0,0-1.44-.21-1.44-.21-.47-.06-.95-.12-1.41-.81.45-.74.89-.84,1.33-.94,6.03-1.47,11.72-5.62,14.83-10.82,3.04-4.91,3.94-10.83,2.55-16.16-1.28-5.07,1.79-10.22,6.87-11.5,6.96-1.78,13.15,4.6,11.57,11.5h0Z"/>
        <path class="cls-1" d="M200.05,140.89"/>
        <path class="cls-5" d="M189.93,143.8c-18.1-7.46-22.48-29.18-10.75-44.24,9.86-13.15,27.96-16.97,43.27-15.1,8.53,1.17,7.27,13.52-1.33,12.93-11.42-1.34-24.56.76-31.66,10.02-6.53,8.25-4.94,20.32,5.51,24.55,7.73,3.6,2.95,14.89-5.02,11.84h0Z"/>
        <path class="cls-5" d="M267.01,158.56c.61-4.73,4.73-8.26,8.94-9.96,8.74-3.48,19.17-.2,26.05,5.72,15.82,13.95,17.67,37.27,15.37,56.63-9.87,81.99-99.91,128.64-172.47,89.12-55.33-29.49-77.11-100.47-47.77-155.83,18.74-36.65,58.07-61.41,99.26-61.99,7.4-.06,14.84.1,22.17,1.18,25.04,4.68,48.42,19.81,63.32,40.11.59.8.42,1.92-.38,2.51-.7.52-1.66.45-2.28-.13-10.19-9.32-21.8-16.67-34.15-21.69-9.24-3.83-18.89-5.95-28.69-7.4-9.68-1.87-19.64-2.03-29.39-.63-61.56,8.23-101.57,71.36-82.04,130.42,27.45,82.07,137.92,93.16,180.6,17.79,11.84-21.23,16.13-48.49,8.44-71.65-3.42-9.48-9.88-14.23-19.71-13.49-1.46.11-3.11.47-4.69,1.21-1.27.59-2.77-.54-2.6-1.91h0Z"/>
        <circle class="cls-3" cx="144.15" cy="196.84" r="10.81"/>
        <path class="cls-2" d="M117.44,125.09c3.3,3.06,11.43,9.71,23.13,10.52,3.26.22,6.2-.05,8.68-.51"/>
        <path class="cls-2" d="M106.47,146.52c3.3,2.65,11.43,8.4,23.13,9.1,3.26.19,6.2-.04,8.68-.44"/>
      </g>
    </g>
  </g>
</svg>