<?xml version="1.0" encoding="UTF-8"?>
<svg id="Layer_2" xmlns="http://www.w3.org/2000/svg" viewBox="0 0 307.61 370.55">
  <defs>
    <style>
      .cls-1 {
        fill: none;
        stroke: #414042;
        stroke-miterlimit: 10;
        stroke-width: 6px;
      }

      .cls-2 {
        fill: #414042;
      }
    </style>
  </defs>
  <g id="Layer_1-2" data-name="Layer_1">
    <g>
      <path class="cls-2" d="M19.18,305.12c19,2.42,27.14-16.93,33-31.64,14.63-37.11,23.77-92.09,70.07-101.36,5.41-1.01,10.97-1.22,16.41-.95,0,0,3.17-.02,3.17-.02,2.4-.05,53.24-.3,57.02-.35,13.07-.12,34.5-.13,47.39-.34,25.11-.57,47.05-21.1,50.96-45.64.72-3.9.93-7.91.88-11.87-.2-23.82-.37-66.68-.56-90.36.36-5.68-3.67-11.39-9.42-12.06-2.41-.18-9.08-.04-11.99-.04-18.18.07-45.16.31-63.41.39-7.26.17-17.7-.31-24.79.71-32.27,2.5-57.98,30.46-60.32,62.37-.53,6.97-.37,17.93-.55,25.04-.2,16.12-.88,59.43-1.15,76.09,0,0-6,0-6,0-.2-23.48-1.11-65.71-1.25-88.78-.01-3.79-.22-9.22.07-13C120.51,36.39,149.64,3.87,186.79.06c23.52-.25,53.01.31,76.65.33,3.9.11,15.18.03,19.02.12,2.04.09,4.71-.12,7.02.25,10.21,1.37,17.84,10.93,17.61,21.03,0,0,0,.79,0,.79v1.59c-.1,22.85-.45,65.78-.56,88.78,0,4.47-.31,8.98-1.17,13.37-4.82,28-30.17,51.15-58.89,51.46-5.75.08-16.47-.08-22.33-.09-21.4-.09-64.06-.42-85.68-.53-23.33-1.86-40.83,8.87-53.16,28.33-16.12,24.83-21.67,54.83-35.52,80.85-6.22,11.43-16.3,22.33-30.61,18.78h0Z"/>
      <path class="cls-2" d="M188.29,11.01C36.91,13.3-45.89,185.96,55.01,301.8c33.37,37.67,83.84,60.35,134.32,58.23,38.59-2.62,76.28-24.41,95.61-58.16,15.77-27.46,19.79-66.94-1.64-92.44-21.57-26.25-63.85-23.56-83.39,3.7-9.1,12.54-13.9,30.31-8.08,45.19,4.74,11.85,16.1,21.92,29.2,22.31,13.02.54,25.72-7.89,30.41-20.03,6.13-14.9-.47-32.89-14.1-41.3-4.6-2.92-9.94-4.81-15.64-5.62v-.83c19.03-2.63,36.95,12.77,38.92,31.7,3.92,36.25-39.24,58.41-65.61,32.39-6.83-6.6-11.63-15.33-13.25-24.73-2.23-15.44,2.24-31.45,11.33-44.06,14.46-20.46,41.63-30.4,65.93-24.19,24.71,5.7,42.8,28.25,47,52.61,8.96,49.25-20.88,97.19-64.3,119.06-17.33,8.98-36.64,14.19-56.16,14.91-52.19.68-103.88-22.65-138.48-61.63C-19.84,235.15-14.88,118.76,58.56,51.32,93.21,18.61,140.57-.42,188.29.07c0,0,0,10.94,0,10.94h0Z"/>
      <circle class="cls-1" cx="68.71" cy="132.01" r="8.68"/>
    </g>
  </g>
</svg>